<svg t="1630916369056" class="icon" viewBox="0 0 1024 1024" version="1.1" xmlns="http://www.w3.org/2000/svg" p-id="4204" width="200" height="200"><path d="M261.8 477.5c60.5-0.1 121.1-0.3 181.6-0.7 4.5 0 8.9-2.4 11.3-3.2 6.4-7.2 8-13.2 5.8-19.9-2.1-6.6-6.8-10.5-13.5-11.8-1.7-0.3-3.4-0.4-5.1-0.4-59.8 0.2-119.5 0.3-179.3 0.6-11.3 0-19.2 7.5-19.3 17.6-0.1 10 7.7 17.8 18.5 17.8zM443 501.2c-60.3 0.1-120.7 0.3-181 0.7-4.6 0-9.2 2.6-11.6 3.3-6.8 7.4-8.3 13.7-5.6 20.6 2.9 7.7 9 11.4 17 11.4 60.5-0.1 121-0.3 181.6-0.6 11.1-0.1 18.5-7.7 18.5-17.8-0.2-9.9-8.1-17.6-18.9-17.6z" p-id="4205"></path><path d="M956.9 370.2c-0.1-17.2-4.1-35.7-11.4-51.2-20-42.6-56.3-61.8-102.5-62.3-42.5-0.5-84.9-0.1-127.4-0.1h-12.9c0-20.1 0.1-38.6 0-57.1-0.4-55.2-38.2-93.5-93.1-93.7-66-0.3-132-0.3-198 0-55 0.2-92.9 38.4-93.4 93.4-0.1 18.5 0 37 0 57.4h-13.8c-41.3 0-82.6-0.2-123.9 0.2-11.1 0.1-22.6 0.8-33.2 3.6-53.1 14.3-83.8 55.5-83.8 111.9-0.1 142.8-0.1 285.7 0.1 428.5 0 11.1 1 22.5 4 33.1 14.5 51.9 54.9 82.5 109.2 82.5 222.4 0.2 444.7 0.2 667.1 0 66.1-0.1 113.3-47 113.5-113.1 0.2-144.4 0.3-288.7-0.5-433.1zM394.7 197c0.1-9.9 5.8-14.7 15.5-14.7h200.3c9.7 0 15.4 4.7 15.5 14.7 0.2 19.3 0.1 38.5 0.1 58.7H394.7c0-20.2-0.2-39.5 0-58.7z m411.2 582.5c-47.5 25.6-103.3 8.7-128.7-39-2.2-4.1-4.7-4.9-8.8-4.9-103.9 0.1-339.8 0-443.6 0.1-16.7 0-30.2-6.1-36.3-21.9-10.8-27.7 5.6-54.7 35.6-54.7 103.5 0.3 339 0 442.5 0.2 6.2 0 9.1-2 12.2-7.4 17.8-31.3 45.3-47.8 80.9-48.3 34.3-0.4 61.1 14.9 80.1 43.7 0.3 0.4 0.3 1 0.8 2.3-30.1 0-59.6 0.1-89-0.1-4.5 0-7.1 1-9.2 5.3-6.4 12.8-13.3 25.4-20.2 37.9-1.8 3.3-2 5.8-0.1 9.2 7.1 12.7 13.9 25.5 20.5 38.4 1.9 3.7 4 5 8.2 5 27.7-0.2 55.3-0.1 83-0.1h7.4c-9.2 15.2-20.8 26.5-35.3 34.3z m10.2-273.3c-17.7 4.2-35.3 4.9-52.6-0.8-15.4-5.1-31-4.1-46.6-4l-193.7 0.6c-2.3 0-4.6-0.3-8.6-0.6 0.3 8.7 0.8 16.1 0.8 23.6 0 16.9-12 24-27 16.3-1.3-0.7-3.4-0.2-5.1 0.1-7.2 1.6-14.4 4.7-21.6 4.8-76.3 0.6-152.5 0.8-228.8 0.9-26.5 0.1-43.8-17.3-44.1-43.8-0.1-10-0.1-19.9-0.1-29.9 0-27.4 17-44.6 44.4-44.7 58.1-0.3 116.1-0.4 174.2-0.6 17.6-0.1 35.3-0.1 52.9-0.2 8.4-0.1 16.3 1.3 23.8 5.3 1.4 0.8 4 0.5 5.6-0.3 12.2-6.4 24.9 0.5 25.5 14.3 0.3 8.6-0.1 17.2-0.2 26.6 2.8 0.1 5 0.2 7.2 0.2 74.5-0.2 149.1-0.5 223.6-0.8 2.5 0 5-1.5 7.5-2.2 1.3-0.4 2.6-0.6 3.9-0.9 36.6-7.5 36.6-7.5 83.8 1.3 0 10 0 19.9 0.1 30.6-7.7 1.2-16.4 2.2-24.9 4.2z" p-id="4206"></path></svg>
